# xmcd
#
# Track frame offsets: 
#        183
#        17350
#        27415
#        44850
#        57025
#        79498
#        90485
#        104920
#        117040
#        133950
#        144045
#        155740
#        171320
#        187403
#        199728
#        211390
#        225058
#        237650
#        248093
#        260840
#
# Disc length: 3637 seconds
#
# Revision: 2
# Processed by: cddbd v1.5.2PL0 Copyright (c) Steve Scherf et al.
# Submitted via: ExactAudioCopy v0.90b4
#
DISCID=260e3314
DTITLE=Dinah Washington - The Blues Ain't Nothing
DYEAR=1962
DGENRE=
TTITLE0=The Blues Ain't Nothin' But A Woman
TTITLE1=Romance In The Park
TTITLE2=You've Been A Good Old Wagon
TTITLE3=Let Me Be The First To Know
TTITLE4=How Long, How Long Blues
TTITLE5=Don't Come Running Back To Me
TTITLE6=It's A Mean Old Man's World
TTITLE7=Key To The Highway
TTITLE8=I Never Got To Heaven
TTITLE9=Duck Before You Drown
TTITLE10=No Hard Feelings
TTITLE11=Is You Is Or Is You Ain't My Baby
TTITLE12=Drinkin' Again
TTITLE13=Take Your Shoes Off,  Baby
TTITLE14=Destination Moon
TTITLE15=Lover Man
TTITLE16=You're Nobody 'Till Somebody Loves You
TTITLE17=Do Nothin' Thill You Hear from Me
TTITLE18=I Don't Know You Anymore
TTITLE19=Why Was I Born ?
EXTD=
EXTT0=
EXTT1=
EXTT2=
EXTT3=
EXTT4=
EXTT5=
EXTT6=
EXTT7=
EXTT8=
EXTT9=
EXTT10=
EXTT11=
EXTT12=
EXTT13=
EXTT14=
EXTT15=
EXTT16=
EXTT17=
EXTT18=
EXTT19=
PLAYORDER=
